<?xml version="1.0" standalone="no"?>
<!DOCTYPE svg PUBLIC "-//W3C//DTD SVG 20010904//EN"
 "http://www.w3.org/TR/2001/REC-SVG-20010904/DTD/svg10.dtd">
<svg version="1.0" xmlns="http://www.w3.org/2000/svg"
 width="921.000000pt" height="134.000000pt" viewBox="0 0 921.000000 134.000000"
 preserveAspectRatio="xMidYMid meet">
<metadata>
Created by potrace 1.13, written by Peter Selinger 2001-2015
</metadata>
<g transform="translate(0.000000,134.000000) scale(0.100000,-0.100000)"
fill="#000000" stroke="none">
<path d="M5005 1329 c-55 -5 -106 -12 -112 -14 -10 -3 -13 -142 -13 -650 l0
-645 155 0 155 0 2 292 3 292 168 -292 169 -292 170 0 170 0 -20 33 c-11 17
-83 137 -161 266 l-140 235 64 58 c91 84 127 161 133 284 10 224 -92 355 -326
415 -93 24 -276 32 -417 18z m354 -280 c55 -30 81 -82 81 -158 0 -73 -14 -104
-70 -155 -33 -30 -155 -96 -176 -96 -2 0 -4 100 -4 221 l0 222 66 -6 c38 -4
81 -15 103 -28z"/>
<path d="M7384 1327 c-3 -8 -3 -254 -2 -548 4 -615 3 -609 87 -689 67 -66 131
-84 264 -76 56 3 171 5 255 5 l152 0 0 301 c0 323 4 350 51 384 27 18 106 21
142 5 51 -23 52 -31 55 -371 l3 -318 140 0 139 0 0 293 c0 169 4 308 10 329
16 55 51 78 121 78 71 0 105 -25 119 -85 5 -22 10 -169 10 -327 l0 -288 141 0
140 0 -3 362 c-4 404 -8 429 -74 507 -52 60 -120 85 -234 86 -84 0 -101 -3
-152 -28 -31 -15 -70 -43 -87 -63 l-31 -34 -35 39 c-55 61 -122 86 -230 86
-99 0 -172 -24 -216 -71 -12 -13 -26 -24 -30 -24 -4 0 -10 20 -13 45 l-7 45
-137 0 -137 0 -58 -110 -58 -110 75 0 76 0 -2 -332 c-1 -183 -3 -308 -5 -278
-2 30 -5 70 -8 88 l-6 32 -54 -6 c-68 -8 -99 10 -114 63 -7 24 -11 219 -11
531 l0 492 -135 0 c-105 0 -137 -3 -141 -13z"/>
<path d="M50 1318 c-1 -23 -50 -1268 -50 -1280 0 -16 13 -18 143 -18 l144 0 6
212 c4 116 7 261 8 322 0 61 4 131 7 156 l7 45 105 -238 105 -237 111 0 111 0
104 242 104 241 6 -229 c4 -126 7 -293 8 -371 l1 -143 155 0 154 0 -4 48 c-3
26 -16 299 -30 607 -14 308 -28 579 -31 603 l-5 42 -147 0 -147 0 -31 -78
c-143 -355 -238 -582 -243 -582 -3 0 -66 149 -140 330 l-134 330 -158 0 c-88
0 -159 -1 -159 -2z"/>
<path d="M2800 1175 l0 -125 140 0 141 0 -3 123 -3 122 -137 3 -138 3 0 -126z"/>
<path d="M2240 1103 l0 -128 -292 3 c-200 2 -311 0 -348 -9 -215 -46 -330
-231 -317 -509 14 -286 147 -433 404 -448 165 -9 284 30 367 118 82 88 116
195 116 366 0 62 -5 135 -12 163 l-11 51 -153 0 -153 0 25 -45 c18 -32 27 -66
31 -118 14 -186 -35 -280 -152 -293 -70 -8 -131 24 -165 86 -22 40 -24 57 -25
155 0 99 2 114 25 155 14 24 40 55 59 67 33 23 39 23 317 23 l282 0 4 -257 c3
-246 5 -261 27 -311 54 -121 160 -169 348 -159 163 9 151 -2 137 130 -7 62
-13 115 -13 118 -1 3 -31 1 -68 -4 -140 -18 -150 1 -155 281 l-3 202 51 0 52
0 61 110 c34 61 61 113 61 115 0 3 -49 5 -110 5 l-110 0 0 130 0 130 -140 0
-140 0 0 -127z"/>
<path d="M4437 979 c-47 -11 -106 -41 -145 -74 -34 -28 -37 -26 -47 28 l-7 37
-137 0 -136 0 -34 -65 -35 -64 -46 43 c-66 62 -141 88 -269 94 -64 3 -126 0
-160 -8 -217 -48 -331 -232 -318 -510 14 -286 147 -433 404 -448 165 -9 284
30 367 118 83 89 116 194 116 370 0 69 -6 137 -15 170 -19 70 -19 70 5 70 20
0 20 -7 20 -360 l0 -360 140 0 140 0 0 303 c0 282 1 304 20 334 54 90 206 82
246 -12 11 -27 14 -95 14 -330 l0 -295 141 0 140 0 -3 368 c-3 353 -4 369 -26
422 -23 58 -76 117 -127 143 -35 17 -134 37 -179 36 -17 -1 -48 -5 -69 -10z
m-800 -259 c46 -27 74 -89 80 -175 14 -184 -35 -278 -152 -291 -70 -8 -131 24
-165 86 -22 40 -24 57 -25 155 0 99 2 114 25 155 36 63 80 90 149 90 38 0 66
-6 88 -20z"/>
<path d="M6825 975 c-125 -20 -197 -43 -191 -63 3 -9 14 -53 26 -97 29 -112
25 -108 101 -90 83 19 219 20 264 0 31 -12 55 -46 55 -76 0 -5 -37 -9 -82 -9
-274 -1 -428 -114 -428 -315 0 -159 79 -260 235 -301 125 -33 293 -27 473 18
l83 21 -3 326 c-3 289 -6 332 -23 379 -39 112 -143 188 -285 211 -80 13 -123
13 -225 -4z m253 -632 l-3 -98 -74 -3 c-81 -3 -123 9 -146 42 -35 49 -4 127
58 145 18 5 63 10 100 10 l68 1 -3 -97z"/>
<path d="M5993 959 c-113 -36 -188 -114 -233 -241 -34 -97 -40 -296 -11 -407
50 -199 161 -287 372 -299 141 -7 216 18 302 98 60 56 126 154 110 163 -5 2
-52 19 -106 37 l-97 32 -20 -24 c-11 -12 -19 -25 -20 -28 0 -3 -14 -14 -32
-25 -42 -24 -140 -25 -187 -1 -36 19 -61 67 -61 116 l0 30 276 0 277 0 -6 123
c-11 243 -89 379 -245 427 -87 27 -233 27 -319 -1z m222 -225 c30 -14 65 -70
65 -104 0 -6 -53 -10 -134 -10 l-135 0 9 31 c15 50 38 78 73 88 49 14 86 13
122 -5z"/>
<path d="M2721 860 c-34 -61 -61 -113 -61 -115 0 -3 34 -5 75 -5 l75 0 0 -360
0 -360 135 0 135 0 0 475 0 475 -149 0 -150 0 -60 -110z"/>
</g>
</svg>
